<svg width="42" height="42" viewBox="0 0 42 42" fill="none" xmlns="http://www.w3.org/2000/svg">
<path d="M21.1349 6L21.1349 36" stroke="#BE2A2A" stroke-width="2" stroke-linecap="round"/>
<path d="M6 21.1309H36" stroke="#BE2A2A" stroke-width="2" stroke-linecap="round"/>
<mask id="path-3-inside-1_6_653" fill="white">
<path d="M0 5C0 2.23858 2.23858 0 5 0H37C39.7614 0 42 2.23858 42 5V37C42 39.7614 39.7614 42 37 42H5C2.23858 42 0 39.7614 0 37V5Z"/>
</mask>
<path d="M5 40.5C3.067 40.5 1.5 38.933 1.5 37H-1.5C-1.5 40.5899 1.41015 43.5 5 43.5V40.5ZM1.5 37V29H-1.5V37H1.5ZM1.5 13V5H-1.5V13H1.5ZM1.5 5C1.5 3.067 3.067 1.5 5 1.5V-1.5C1.41015 -1.5 -1.5 1.41015 -1.5 5H1.5ZM5 1.5H13V-1.5H5V1.5ZM29 1.5H37V-1.5H29V1.5ZM37 1.5C38.933 1.5 40.5 3.067 40.5 5H43.5C43.5 1.41015 40.5898 -1.5 37 -1.5V1.5ZM40.5 5V13H43.5V5H40.5ZM40.5 29V37H43.5V29H40.5ZM40.5 37C40.5 38.933 38.933 40.5 37 40.5V43.5C40.5899 43.5 43.5 40.5898 43.5 37H40.5ZM37 40.5H29V43.5H37V40.5ZM13 40.5H5V43.5H13V40.5ZM5 39C3.89543 39 3 38.1046 3 37H-3C-3 41.4183 0.581724 45 5 45V39ZM3 37V29H-3V37H3ZM3 13V5H-3V13H3ZM3 5C3 3.89543 3.89543 3 5 3V-3C0.581721 -3 -3 0.581724 -3 5H3ZM5 3H13V-3H5V3ZM29 3H37V-3H29V3ZM37 3C38.1046 3 39 3.89543 39 5H45C45 0.581721 41.4183 -3 37 -3V3ZM39 5V13H45V5H39ZM39 29V37H45V29H39ZM39 37C39 38.1046 38.1046 39 37 39V45C41.4183 45 45 41.4183 45 37H39ZM37 39H29V45H37V39ZM13 39H5V45H13V39Z" fill="#BE2A2A" mask="url(#path-3-inside-1_6_653)"/>
</svg>
