<svg width="42" height="38" viewBox="0 0 42 38" fill="none" xmlns="http://www.w3.org/2000/svg">
<path d="M36.0007 31.8427L15.7315 11.3013C16.0649 10.4458 16.2651 9.54299 16.325 8.62517C16.3984 7.64955 16.2859 6.66874 15.9934 5.73625C15.631 4.51964 14.9703 3.41597 14.073 2.52832C13.2702 1.7095 12.307 1.07035 11.2455 0.652133C10.184 0.233911 9.04781 0.0459054 7.91019 0.100249H7.75301C6.88969 0.13251 6.03871 0.318485 5.23899 0.649667L9.09736 4.56647L10.2146 5.70078L11.0702 6.56921C11.057 7.62719 10.7936 8.66652 10.302 9.59992C10.1834 9.78294 10.049 9.95493 9.90036 10.1139C8.89101 10.8894 7.65789 11.3067 6.3913 11.3013L2.13148 6.97691L0.560154 5.38173C0.317416 6.00105 0.158828 6.65093 0.0887398 7.31353L0.0362394 7.68575C-0.140722 9.58497 0.334059 11.4879 1.38048 13.0736C1.68415 13.5304 2.02899 13.9576 2.41057 14.3498C3.1333 15.0856 3.99332 15.6683 4.9405 16.0639C5.88767 16.4595 6.90306 16.66 7.92748 16.6538C9.00412 16.6485 10.0702 16.4381 11.0701 16.0335L27.8477 33.0477L32.0551 37.3014H34.3945L36.7165 34.9441V32.5692L36.0007 31.8427ZM13.1261 21.8888L17.9078 26.7352L7.4512 37.3333H4.21951L2.64322 35.7357V32.4869L13.1261 21.8888ZM42 11.2374L35.6683 17.6548L31.1231 13.3409L26.2888 18.2407L21.5071 13.3943L26.3151 8.49452L20.6401 2.74283L23.031 0L30.913 1.59781L42 11.2374Z" fill="#BE2A2A"/>
</svg>
