<svg width="515" height="104" viewBox="0 0 515 104" fill="none" xmlns="http://www.w3.org/2000/svg">
<path d="M13.688 45.736C13.176 52.0507 13.1333 57.384 13.56 61.736C13.9867 66.0027 14.6693 69.5013 15.608 72.232C16.5467 74.9627 17.6987 76.9253 19.064 78.12C20.4293 79.4 21.7947 80.1253 23.16 80.296C24.5253 80.4667 25.848 80.2107 27.128 79.528C28.408 78.8453 29.56 77.8213 30.584 76.456C31.6933 75.0907 32.632 73.4267 33.4 71.464C34.168 69.5013 34.68 67.2827 34.936 64.808C35.192 62.9307 35.192 61.1387 34.936 59.432C34.7653 57.64 34.4667 56.0187 34.04 54.568C33.6133 53.1173 33.144 51.88 32.632 50.856C32.12 49.7467 31.6933 48.8507 31.352 48.168C31.1813 47.912 31.1813 47.6987 31.352 47.528C31.5227 47.272 31.736 47.144 31.992 47.144C32.8453 47.2293 33.912 47.528 35.192 48.04C36.472 48.4667 37.6667 49.3627 38.776 50.728C39.9707 52.0933 40.8667 54.0133 41.464 56.488C42.1467 58.8773 42.232 62.0773 41.72 66.088C41.1227 71.0373 39.8427 74.7493 37.88 77.224C36.0027 79.784 33.9547 81.6613 31.736 82.856C29.176 84.2213 26.4027 84.904 23.416 84.904C18.808 84.7333 14.7547 83.3253 11.256 80.68C9.72 79.5707 8.22667 78.12 6.776 76.328C5.41067 74.6213 4.216 72.488 3.192 69.928C2.168 67.368 1.4 64.3387 0.888 60.84C0.461334 57.256 0.376 53.1173 0.632 48.424C0.973334 42.6213 1.528 37.5013 2.296 33.064C3.14933 28.6267 4.13067 24.744 5.24 21.416C6.43467 18.088 7.71467 15.272 9.08 12.968C10.4453 10.5787 11.8107 8.616 13.176 7.07999C16.4187 3.49599 19.96 1.36266 23.8 0.68C26.0187 0.423999 28.024 0.594663 29.816 1.19199C31.2667 1.78933 32.632 2.856 33.912 4.392C35.192 5.928 35.8747 8.31733 35.96 11.56C35.96 12.072 35.8747 12.456 35.704 12.712C35.3627 13.224 34.7653 14.0347 33.912 15.144C33.144 16.168 32.248 17.0213 31.224 17.704C30.968 17.8747 30.712 17.9173 30.456 17.832C30.2853 17.6613 30.2 17.448 30.2 17.192C30.2853 16.424 30.3707 15.4 30.456 14.12C30.5413 12.7547 30.4133 11.4747 30.072 10.28C29.816 9 29.304 7.93333 28.536 7.07999C27.8533 6.14133 26.744 5.62933 25.208 5.544C24.0133 5.544 22.9467 6.09867 22.008 7.208C21.0693 8.31733 20.216 9.81066 19.448 11.688C18.68 13.5653 17.9973 15.6987 17.4 18.088C16.888 20.4773 16.4187 22.952 15.992 25.512C15.0533 31.4853 14.2853 38.2267 13.688 45.736ZM79.682 52.392C80.1087 52.5627 80.3647 52.8187 80.45 53.16C80.6207 53.5013 80.6207 53.8853 80.45 54.312C79.5113 56.36 78.6153 58.2373 77.762 59.944C76.9087 61.5653 76.098 63.016 75.33 64.296C73.8793 66.5147 72.2153 68.392 70.338 69.928C68.7167 71.208 66.754 72.232 64.45 73C62.146 73.8533 59.5007 73.8107 56.514 72.872C54.8927 72.36 53.2287 71.336 51.522 69.8C49.9007 68.264 48.5353 66.344 47.426 64.04C46.3167 61.736 45.5913 59.1333 45.25 56.232C44.9087 53.2453 45.25 50.0453 46.274 46.632C47.2127 43.304 48.4073 40.744 49.858 38.952C51.394 37.0747 52.8873 35.6667 54.338 34.728C55.9593 33.704 57.666 33.1067 59.458 32.936C61.5913 32.7653 63.3833 33.0213 64.834 33.704C66.2847 34.3013 67.4793 35.0693 68.418 36.008C69.186 36.8613 69.7833 37.7573 70.21 38.696C70.6367 39.5493 70.85 40.5307 70.85 41.64C70.9353 42.7493 70.6793 44.0293 70.082 45.48C69.3993 47.016 68.418 48.296 67.138 49.32C66.0287 50.2587 64.5353 51.0267 62.658 51.624C60.7807 52.136 58.3913 52.1787 55.49 51.752C55.49 52.008 55.4473 52.264 55.362 52.52C55.362 52.776 55.362 53.032 55.362 53.288C55.1913 56.104 55.2767 58.664 55.618 60.968C55.9593 62.9307 56.5993 64.808 57.538 66.6C58.4767 68.3067 59.97 69.2453 62.018 69.416C63.4687 69.5867 64.834 69.3307 66.114 68.648C67.4793 67.9653 68.674 67.1547 69.698 66.216C70.8927 65.192 72.0447 63.9973 73.154 62.632C74.434 60.6693 75.5433 58.7493 76.482 56.872C77.506 54.9093 78.1887 53.544 78.53 52.776C78.7007 52.3493 78.9993 52.2213 79.426 52.392H79.682ZM67.394 38.184C66.7967 37.5867 65.986 37.416 64.962 37.672C63.938 37.928 62.8713 38.568 61.762 39.592C60.6527 40.5307 59.586 41.8107 58.562 43.432C57.538 44.968 56.7273 46.76 56.13 48.808C56.898 48.9787 57.7513 49.064 58.69 49.064C59.6287 49.064 60.5673 48.936 61.506 48.68C62.53 48.424 63.4687 48.0827 64.322 47.656C65.2607 47.144 66.0713 46.4187 66.754 45.48C67.522 44.3707 67.9913 43.3893 68.162 42.536C68.418 41.5973 68.4607 40.7867 68.29 40.104C68.1193 39.336 67.8207 38.696 67.394 38.184ZM81.346 64.68C81.5167 63.144 81.4313 62.0347 81.09 61.352C80.834 60.7547 80.4927 60.3707 80.066 60.2C79.8953 61.9067 79.81 63.272 79.81 64.296C79.8953 65.4053 80.1087 66.0027 80.45 66.088C80.7913 66.088 81.0473 65.8747 81.218 65.448L81.346 64.68ZM93.634 32.68C96.5353 32.68 98.5407 33.5333 99.65 35.24C100.845 36.8613 101.613 38.568 101.954 40.36C102.978 38.312 104.258 36.52 105.794 34.984C107.415 33.448 109.421 32.68 111.81 32.68C114.37 32.68 116.247 33.3627 117.442 34.728C118.637 36.0933 119.447 37.5867 119.874 39.208C120.301 41.1707 120.429 43.3467 120.258 45.736C120.087 48.1253 119.917 50.5147 119.746 52.904C119.575 55.2933 119.447 57.512 119.362 59.56C119.362 61.5227 119.405 63.144 119.49 64.424C119.575 65.6187 119.746 66.2587 120.002 66.344C120.941 65.4053 121.837 64.2533 122.69 62.888C123.629 61.5227 124.482 60.2 125.25 58.92C126.018 57.5547 126.658 56.3173 127.17 55.208C127.682 54.0987 128.066 53.288 128.322 52.776C128.493 52.3493 128.791 52.2213 129.218 52.392H129.474C129.901 52.5627 130.157 52.8187 130.242 53.16C130.413 53.5013 130.413 53.8853 130.242 54.312C128.194 58.8347 126.274 62.4613 124.482 65.192C122.775 67.8373 121.154 69.8 119.618 71.08C118.167 72.36 116.759 73.0427 115.394 73.128C114.029 73.2133 112.706 72.872 111.426 72.104C109.975 71.2507 108.951 69.7147 108.354 67.496C107.757 65.192 107.373 62.7173 107.202 60.072C107.031 57.3413 106.989 54.6533 107.074 52.008C107.245 49.2773 107.415 47.0587 107.586 45.352C107.842 43.4747 107.885 42.1947 107.714 41.512C107.543 40.744 107.245 40.3173 106.818 40.232C106.221 40.1467 105.581 40.8293 104.898 42.28C104.301 43.7307 103.703 45.48 103.106 47.528C102.594 49.4907 102.125 51.5813 101.698 53.8C101.357 55.9333 101.143 57.7253 101.058 59.176V59.816C101.058 59.9867 101.058 60.2427 101.058 60.584C101.058 60.9253 101.015 61.3093 100.93 61.736C100.93 62.3333 100.845 63.0587 100.674 63.912C100.503 64.68 100.247 65.448 99.906 66.216C99.65 66.8987 99.266 67.496 98.754 68.008C98.242 68.52 97.602 68.8187 96.834 68.904C95.042 69.0747 93.634 68.7333 92.61 67.88C91.6713 66.9413 90.946 65.9173 90.434 64.808C89.8367 63.528 89.4953 62.0773 89.41 60.456C89.0687 57.5547 88.9407 54.824 89.026 52.264C89.1113 49.6187 89.1967 47.3147 89.282 45.352C89.538 43.4747 89.5807 42.152 89.41 41.384C89.3247 40.872 89.1967 40.4027 89.026 39.976C88.8553 39.464 88.5993 38.952 88.258 38.44C87.9167 38.0987 87.618 38.0133 87.362 38.184C86.6793 38.5253 85.9967 39.336 85.314 40.616C84.7167 41.896 84.1193 43.3893 83.522 45.096C82.9247 46.888 82.37 48.7653 81.858 50.728C81.4313 52.776 81.0473 54.7387 80.706 56.616C82.498 57.128 83.7353 58.2373 84.418 59.944C85.186 61.736 85.4847 63.6133 85.314 65.576C85.2287 67.5387 84.7593 69.288 83.906 70.824C83.0527 72.36 81.9007 73.128 80.45 73.128C79.2553 73.128 78.3593 72.616 77.762 71.592C77.25 70.6533 76.9087 69.5013 76.738 68.136C76.5673 66.856 76.482 65.5333 76.482 64.168C76.5673 62.8027 76.6527 61.736 76.738 60.968C76.0553 61.736 75.5433 62.7173 75.202 63.912C74.8607 65.192 74.6047 66.1733 74.434 66.856C74.2633 67.4533 73.9647 67.5387 73.538 67.112L73.41 66.856C72.5567 65.4907 72.3433 63.9547 72.77 62.248C73.1113 61.1387 73.6233 60.0293 74.306 58.92C74.9887 57.8107 76.0127 57.0427 77.378 56.616C78.3167 50.728 79.426 46.1627 80.706 42.92C81.986 39.7627 83.2233 37.4587 84.418 36.008C85.8687 34.216 87.362 33.192 88.898 32.936C90.178 32.68 91.7567 32.5947 93.634 32.68ZM161.307 52.392C161.734 52.5627 161.99 52.8187 162.075 53.16C162.246 53.5013 162.246 53.8853 162.075 54.312C161.136 56.36 160.24 58.2373 159.387 59.944C158.534 61.5653 157.723 63.016 156.955 64.296C155.504 66.5147 153.84 68.392 151.963 69.928C150.342 71.208 148.379 72.232 146.075 73C143.771 73.8533 141.126 73.8107 138.139 72.872C136.518 72.36 134.854 71.336 133.147 69.8C131.526 68.264 130.16 66.344 129.051 64.04C127.942 61.736 127.216 59.1333 126.875 56.232C126.534 53.2453 126.875 50.0453 127.899 46.632C128.838 43.304 130.032 40.744 131.483 38.952C133.019 37.0747 134.512 35.6667 135.963 34.728C137.584 33.704 139.291 33.1067 141.083 32.936C143.216 32.7653 145.008 33.0213 146.459 33.704C147.91 34.3013 149.104 35.0693 150.043 36.008C150.811 36.8613 151.408 37.7573 151.835 38.696C152.262 39.5493 152.475 40.5307 152.475 41.64C152.56 42.7493 152.304 44.0293 151.707 45.48C151.024 47.016 150.043 48.296 148.763 49.32C147.654 50.2587 146.16 51.0267 144.283 51.624C142.406 52.136 140.016 52.1787 137.115 51.752C137.115 52.008 137.072 52.264 136.987 52.52C136.987 52.776 136.987 53.032 136.987 53.288C136.816 56.104 136.902 58.664 137.243 60.968C137.584 62.9307 138.224 64.808 139.163 66.6C140.102 68.3067 141.595 69.2453 143.643 69.416C145.094 69.5867 146.459 69.3307 147.739 68.648C149.104 67.9653 150.299 67.1547 151.323 66.216C152.518 65.192 153.67 63.9973 154.779 62.632C156.059 60.6693 157.168 58.7493 158.107 56.872C159.131 54.9093 159.814 53.544 160.155 52.776C160.326 52.3493 160.624 52.2213 161.051 52.392H161.307ZM149.019 38.184C148.422 37.5867 147.611 37.416 146.587 37.672C145.563 37.928 144.496 38.568 143.387 39.592C142.278 40.5307 141.211 41.8107 140.187 43.432C139.163 44.968 138.352 46.76 137.755 48.808C138.523 48.9787 139.376 49.064 140.315 49.064C141.254 49.064 142.192 48.936 143.131 48.68C144.155 48.424 145.094 48.0827 145.947 47.656C146.886 47.144 147.696 46.4187 148.379 45.48C149.147 44.3707 149.616 43.3893 149.787 42.536C150.043 41.5973 150.086 40.7867 149.915 40.104C149.744 39.336 149.446 38.696 149.019 38.184ZM200.219 52.392C201.328 52.7333 201.627 53.3733 201.115 54.312C199.067 58.8347 197.147 62.4613 195.355 65.192C193.648 67.8373 192.027 69.8 190.491 71.08C188.955 72.36 187.504 73.0427 186.139 73.128C184.859 73.2133 183.579 72.872 182.299 72.104C181.36 71.5067 180.592 70.5253 179.995 69.16C179.398 67.7947 178.971 66.216 178.715 64.424C177.776 66.6427 176.539 68.6053 175.003 70.312C173.552 71.9333 171.76 72.8293 169.627 73C168.006 73.0853 166.512 72.7013 165.147 71.848C163.696 70.9947 162.544 69.7147 161.691 68.008C160.923 66.216 160.326 64.4667 159.899 62.76C159.472 60.712 159.174 58.536 159.003 56.232C158.662 51.112 158.875 45.9067 159.643 40.616C159.814 39.592 160.155 38.6107 160.667 37.672C161.179 36.648 161.904 35.8373 162.843 35.24C165.488 33.3627 168.347 32.4667 171.419 32.552C171.675 32.6373 171.888 32.808 172.059 33.064C172.315 33.2347 172.4 33.448 172.315 33.704C171.376 38.9093 170.694 44.1147 170.267 49.32C169.926 54.44 169.968 59.688 170.395 65.064C170.566 66.0027 170.779 66.8133 171.035 67.496C171.291 68.0933 171.675 68.3067 172.187 68.136C172.699 67.88 173.211 67.368 173.723 66.6C174.235 65.7467 174.704 64.808 175.131 63.784C175.558 62.6747 175.942 61.48 176.283 60.2C176.71 58.92 177.051 57.7253 177.307 56.616C177.478 55.9333 177.606 55.1227 177.691 54.184C177.862 53.16 177.947 52.4773 177.947 52.136C178.032 50.1733 178.118 48.3813 178.203 46.76C178.288 45.1387 178.416 43.7733 178.587 42.664C178.843 40.2747 179.867 38.3973 181.659 37.032C182.598 36.264 183.835 35.5813 185.371 34.984C186.907 34.3013 188.784 33.9173 191.003 33.832C191.259 33.832 191.472 33.96 191.643 34.216C191.899 34.3867 191.984 34.6 191.899 34.856C191.814 35.7947 191.686 37.2027 191.515 39.08C191.43 40.9573 191.302 43.048 191.131 45.352C190.96 47.656 190.79 50.0453 190.619 52.52C190.534 54.9947 190.448 57.256 190.363 59.304C190.278 61.2667 190.235 62.9307 190.235 64.296C190.32 65.576 190.491 66.2587 190.747 66.344C191.771 65.4053 192.71 64.2533 193.563 62.888C194.502 61.5227 195.355 60.2 196.123 58.92C196.891 57.5547 197.531 56.3173 198.043 55.208C198.555 54.0987 198.939 53.288 199.195 52.776C199.366 52.3493 199.664 52.2213 200.091 52.392H200.219ZM186.907 26.152C186.992 26.664 186.992 27.0907 186.907 27.432C186.736 28.2853 186.395 28.7547 185.883 28.84C185.456 28.84 185.115 28.7547 184.859 28.584C184.688 28.4133 184.475 28.2 184.219 27.944C184.048 27.688 183.792 27.4747 183.451 27.304C183.11 27.1333 182.683 27.048 182.171 27.048C181.744 27.048 180.976 27.2613 179.867 27.688C178.758 28.1147 177.52 28.4133 176.155 28.584C174.875 28.6693 173.552 28.456 172.187 27.944C170.822 27.432 169.712 26.28 168.859 24.488C168.518 23.8053 168.262 23.208 168.091 22.696C167.92 22.2693 167.878 21.8427 167.963 21.416C168.134 20.904 168.56 20.5627 169.243 20.392C169.84 20.2213 170.395 20.3067 170.907 20.648C171.504 20.9893 172.059 21.416 172.571 21.928C173.168 22.3547 173.723 22.696 174.235 22.952C174.832 23.208 175.515 23.208 176.283 22.952C177.051 22.696 177.99 22.44 179.099 22.184C180.208 21.928 181.275 21.8853 182.299 22.056C183.408 22.1413 184.39 22.5253 185.243 23.208C186.096 23.8053 186.651 24.7867 186.907 26.152ZM212.848 55.464H209.392C209.307 56.232 209.264 56.9573 209.264 57.64C209.093 60.456 208.965 63.1867 208.88 65.832C208.88 68.4773 208.88 70.7387 208.88 72.616C208.88 73.7253 208.325 74.28 207.216 74.28C203.803 74.024 201.456 72.3173 200.176 69.16C198.981 66.0027 198.299 61.864 198.128 56.744C197.957 53.8427 197.915 51.0267 198 48.296C198.085 45.48 198.213 43.2187 198.384 41.512C198.555 39.2933 199.493 37.4587 201.2 36.008C202.139 35.24 203.205 34.5147 204.4 33.832C205.68 33.064 207.387 32.6373 209.52 32.552C210.203 32.552 210.544 32.8933 210.544 33.576C210.459 34.1733 210.373 35.1973 210.288 36.648C210.288 38.0133 210.203 39.6773 210.032 41.64C209.947 46.248 209.776 49.704 209.52 52.008V53.16C211.739 53.2453 213.957 53.16 216.176 52.904V52.136C216.261 50.2587 216.347 48.4667 216.432 46.76C216.517 45.1387 216.645 43.7733 216.816 42.664C217.072 40.2747 218.096 38.3973 219.888 37.032C220.827 36.264 222.064 35.5387 223.6 34.856C225.136 34.2587 227.013 33.9173 229.232 33.832C229.488 33.832 229.744 33.9173 230 34.088C230.171 34.344 230.213 34.6 230.128 34.856C230.043 35.7947 229.957 37.2027 229.872 39.08C229.701 40.9573 229.531 43.048 229.36 45.352C229.189 47.656 229.061 50.0453 228.976 52.52C228.805 55.08 228.677 57.2987 228.592 59.176C228.507 61.224 228.507 62.888 228.592 64.168C228.592 65.5333 228.72 66.2587 228.976 66.344C230 65.4053 230.981 64.2533 231.92 62.888C232.773 61.5227 233.584 60.1573 234.352 58.792C235.12 57.512 235.76 56.3173 236.272 55.208C236.784 54.0987 237.168 53.288 237.424 52.776C237.595 52.3493 237.893 52.2213 238.32 52.392H238.448C239.557 52.7333 239.856 53.3733 239.344 54.312C237.296 58.8347 235.419 62.4187 233.712 65.064C231.92 67.7947 230.256 69.8 228.72 71.08C227.184 72.36 225.776 73.0427 224.496 73.128C223.131 73.2133 221.808 72.872 220.528 72.104C219.589 71.5067 218.821 70.5253 218.224 69.16C217.627 67.7947 217.2 66.216 216.944 64.424C216.517 61.5227 216.261 58.664 216.176 55.848L215.792 55.72C214.768 55.6347 213.787 55.5493 212.848 55.464ZM267.482 41.384C267.994 42.152 268.122 43.048 267.866 44.072C267.183 45.9493 266.415 47.5707 265.562 48.936C265.647 49.96 265.69 51.0693 265.69 52.264C265.69 53.3733 265.605 54.5253 265.434 55.72C265.007 59.4747 264.154 62.4613 262.874 64.68C261.679 66.8133 260.442 68.4773 259.162 69.672C257.626 71.1227 255.962 72.104 254.17 72.616C251.013 73.2987 248.325 73.128 246.106 72.104C243.887 71.08 242.095 69.5013 240.73 67.368C239.45 65.2347 238.597 62.8027 238.17 60.072C237.743 57.256 237.786 54.44 238.298 51.624C238.383 51.0267 238.554 50.3867 238.81 49.704C238.981 49.1067 239.194 48.4667 239.45 47.784C239.791 47.1013 240.218 46.4187 240.73 45.736C240.645 44.2 240.858 42.7067 241.37 41.256C241.967 39.72 242.735 38.3547 243.674 37.16C244.698 35.88 245.85 34.856 247.13 34.088C248.495 33.32 249.946 32.8933 251.482 32.808C254.639 32.552 257.455 33.5333 259.93 35.752C262.405 37.8853 264.111 41 265.05 45.096C265.477 44.328 265.818 43.6453 266.074 43.048C266.415 42.4507 266.671 41.9387 266.842 41.512C266.842 41.3413 266.885 41.256 266.97 41.256C267.141 41.1707 267.311 41.2133 267.482 41.384ZM252.762 37.288C250.885 37.4587 249.477 38.7387 248.538 41.128C248.965 41.128 249.391 41.128 249.818 41.128C250.245 41.128 250.714 41.1707 251.226 41.256C251.482 41.3413 251.653 41.512 251.738 41.768C251.909 42.024 251.909 42.3227 251.738 42.664C251.311 43.3467 250.842 44.2853 250.33 45.48C249.818 46.5893 249.349 47.912 248.922 49.448C249.349 50.0453 249.818 50.5147 250.33 50.856C250.842 51.112 251.311 51.3253 251.738 51.496C252.25 51.752 252.805 51.88 253.402 51.88C254.853 52.0507 256.133 51.9653 257.242 51.624C258.437 51.2827 259.503 50.7707 260.442 50.088C260.357 45.48 259.503 42.152 257.882 40.104C256.261 38.056 254.554 37.1173 252.762 37.288ZM259.546 59.048C259.717 58.536 259.802 57.9813 259.802 57.384C259.887 56.7867 259.973 56.232 260.058 55.72C260.143 55.1227 260.229 54.4827 260.314 53.8C258.351 54.9093 256.303 55.5493 254.17 55.72C252.037 55.8907 250.031 55.6347 248.154 54.952C248.069 55.976 247.983 57.3413 247.898 59.048C247.898 60.6693 248.026 62.248 248.282 63.784C248.623 65.32 249.178 66.6 249.946 67.624C250.799 68.5627 251.994 68.8613 253.53 68.52C253.786 68.4347 254.127 68.3067 254.554 68.136C255.066 67.9653 255.621 67.5813 256.218 66.984C256.815 66.3867 257.413 65.4907 258.01 64.296C258.607 63.016 259.119 61.2667 259.546 59.048ZM303.682 52.392C304.109 52.5627 304.365 52.8187 304.45 53.16C304.621 53.5013 304.621 53.8853 304.45 54.312C303.511 56.36 302.615 58.2373 301.762 59.944C300.909 61.5653 300.098 63.016 299.33 64.296C297.879 66.5147 296.215 68.392 294.338 69.928C292.717 71.208 290.754 72.232 288.45 73C286.146 73.8533 283.501 73.8107 280.514 72.872C278.893 72.36 277.229 71.336 275.522 69.8C273.901 68.264 272.535 66.344 271.426 64.04C270.317 61.736 269.591 59.1333 269.25 56.232C268.909 53.2453 269.25 50.0453 270.274 46.632C271.213 43.304 272.407 40.744 273.858 38.952C275.394 37.0747 276.887 35.6667 278.338 34.728C279.959 33.704 281.666 33.1067 283.458 32.936C285.591 32.7653 287.383 33.0213 288.834 33.704C290.285 34.3013 291.479 35.0693 292.418 36.008C293.186 36.8613 293.783 37.7573 294.21 38.696C294.637 39.5493 294.85 40.5307 294.85 41.64C294.935 42.7493 294.679 44.0293 294.082 45.48C293.399 47.016 292.418 48.296 291.138 49.32C290.029 50.2587 288.535 51.0267 286.658 51.624C284.781 52.136 282.391 52.1787 279.49 51.752C279.49 52.008 279.447 52.264 279.362 52.52C279.362 52.776 279.362 53.032 279.362 53.288C279.191 56.104 279.277 58.664 279.618 60.968C279.959 62.9307 280.599 64.808 281.538 66.6C282.477 68.3067 283.97 69.2453 286.018 69.416C287.469 69.5867 288.834 69.3307 290.114 68.648C291.479 67.9653 292.674 67.1547 293.698 66.216C294.893 65.192 296.045 63.9973 297.154 62.632C298.434 60.6693 299.543 58.7493 300.482 56.872C301.506 54.9093 302.189 53.544 302.53 52.776C302.701 52.3493 302.999 52.2213 303.426 52.392H303.682ZM291.394 38.184C290.797 37.5867 289.986 37.416 288.962 37.672C287.938 37.928 286.871 38.568 285.762 39.592C284.653 40.5307 283.586 41.8107 282.562 43.432C281.538 44.968 280.727 46.76 280.13 48.808C280.898 48.9787 281.751 49.064 282.69 49.064C283.629 49.064 284.567 48.936 285.506 48.68C286.53 48.424 287.469 48.0827 288.322 47.656C289.261 47.144 290.071 46.4187 290.754 45.48C291.522 44.3707 291.991 43.3893 292.162 42.536C292.418 41.5973 292.461 40.7867 292.29 40.104C292.119 39.336 291.821 38.696 291.394 38.184ZM368.45 61.992C368.45 62.5893 368.493 63.1867 368.578 63.784C368.663 64.296 368.706 64.808 368.706 65.32C368.791 65.832 368.919 66.1733 369.09 66.344C370.029 65.4053 370.967 64.2533 371.906 62.888C372.845 61.5227 373.698 60.2 374.466 58.92C375.234 57.5547 375.874 56.3173 376.386 55.208C376.898 54.0987 377.282 53.288 377.538 52.776C377.709 52.3493 378.007 52.2213 378.434 52.392H378.562C379.501 52.7333 379.799 53.3733 379.458 54.312C377.239 59.0907 375.234 62.8453 373.442 65.576C371.65 68.2213 369.986 70.1413 368.45 71.336C368.365 72.2747 368.279 73.256 368.194 74.28C368.194 75.304 368.109 76.3707 367.938 77.48C369.133 77.5653 370.285 77.6507 371.394 77.736C372.589 77.9067 373.826 78.12 375.106 78.376C376.557 78.7173 377.837 79.1867 378.946 79.784C379.885 80.296 380.695 80.9787 381.378 81.832C382.061 82.6853 382.317 83.752 382.146 85.032C382.146 85.544 382.018 86.056 381.762 86.568C381.591 86.9947 381.293 87.4213 380.866 87.848C380.439 88.36 379.885 88.744 379.202 89C378.093 89.4267 376.941 89.4693 375.746 89.128C374.551 88.7867 373.527 88.3173 372.674 87.72C371.991 87.208 371.138 86.6533 370.114 86.056C369.175 85.4587 368.109 84.8613 366.914 84.264C366.402 86.568 365.719 88.744 364.866 90.792C364.098 92.9253 363.117 94.7173 361.922 96.168C360.813 97.704 359.447 98.856 357.826 99.624C356.29 100.392 354.498 100.648 352.45 100.392C349.207 100.051 346.903 98.8987 345.538 96.936C344.173 94.9733 343.661 92.7973 344.002 90.408C344.429 88.0187 345.709 85.672 347.842 83.368C350.061 81.1493 353.175 79.4853 357.186 78.376C357.357 74.8773 357.357 71.5493 357.186 68.392C356.247 69.8427 354.925 70.9947 353.218 71.848C351.511 72.7013 349.506 73.0427 347.202 72.872C345.41 72.7867 343.575 72.104 341.698 70.824C339.821 69.4587 338.157 67.6667 336.706 65.448C335.341 63.144 334.317 60.4987 333.634 57.512C332.951 54.5253 332.951 51.2827 333.634 47.784C334.317 44.2853 335.298 41.5547 336.578 39.592C337.943 37.544 339.309 36.008 340.674 34.984C342.21 33.7893 343.917 32.9787 345.794 32.552C348.183 32.2107 350.189 32.3813 351.81 33.064C353.517 33.6613 354.925 34.472 356.034 35.496C357.143 36.4347 357.954 37.416 358.466 38.44C359.063 39.464 359.447 40.1467 359.618 40.488C360.557 39.72 361.751 39.0373 363.202 38.44C364.738 37.8427 366.573 37.5013 368.706 37.416C369.303 37.416 369.602 37.7573 369.602 38.44C369.517 39.464 369.389 40.9573 369.218 42.92C369.133 44.8827 369.005 47.016 368.834 49.32C368.749 51.5387 368.663 53.8 368.578 56.104C368.493 58.3227 368.45 60.2853 368.45 61.992ZM351.298 69.16C353.175 68.392 354.498 67.4107 355.266 66.216C356.034 65.0213 356.546 64.04 356.802 63.272C356.546 61.48 356.375 59.6453 356.29 57.768C356.205 55.8053 356.162 53.9707 356.162 52.264C356.162 50.472 356.205 48.8933 356.29 47.528C356.375 46.1627 356.418 45.1387 356.418 44.456C356.418 44.2 356.418 43.816 356.418 43.304C356.418 42.7067 356.29 42.0667 356.034 41.384C355.863 40.7013 355.565 40.0613 355.138 39.464C354.711 38.7813 354.114 38.2267 353.346 37.8C352.407 37.3733 351.341 37.416 350.146 37.928C349.037 38.44 347.97 39.3787 346.946 40.744C346.007 42.1093 345.197 43.8587 344.514 45.992C343.917 48.1253 343.661 50.6 343.746 53.416C343.917 56.6587 344.215 59.2613 344.642 61.224C345.154 63.1013 345.666 64.68 346.178 65.96C346.605 67.0693 347.287 68.008 348.226 68.776C349.25 69.4587 350.274 69.5867 351.298 69.16ZM349.506 96.168C350.701 96.5093 351.767 96.296 352.706 95.528C353.73 94.76 354.455 93.7787 354.882 92.584C355.394 91.304 355.821 89.8107 356.162 88.104C356.503 86.4827 356.759 84.7333 356.93 82.856C356.759 82.856 356.589 82.856 356.418 82.856C356.333 82.9413 356.205 82.984 356.034 82.984C354.754 83.3253 353.559 83.7947 352.45 84.392C351.511 84.9893 350.53 85.7573 349.506 86.696C348.567 87.6347 347.885 88.9147 347.458 90.536C347.202 91.3893 347.117 92.2 347.202 92.968C347.287 93.6507 347.458 94.2907 347.714 94.888C348.055 95.4853 348.653 95.912 349.506 96.168ZM416.701 52.392C417.128 52.5627 417.384 52.8187 417.469 53.16C417.64 53.5013 417.64 53.8853 417.469 54.312C415.165 59.5173 412.946 63.6133 410.813 66.6C410.13 67.7093 409.405 68.4773 408.637 68.904C407.869 69.2453 407.101 69.4587 406.333 69.544C405.48 69.544 404.882 69.4587 404.541 69.288C404.029 69.9707 403.432 70.568 402.749 71.08C401.81 71.848 400.829 72.4453 399.805 72.872C398.866 73.2987 397.8 73.5547 396.605 73.64C395.496 73.7253 394.301 73.4267 393.021 72.744C392.424 72.4027 391.912 71.976 391.485 71.464C391.058 71.0373 390.674 70.4827 390.333 69.8C389.992 69.032 389.778 68.1787 389.693 67.24C389.608 66.3867 389.608 65.448 389.693 64.424C389.864 63.4 390.333 62.3333 391.101 61.224C392.04 59.7733 393.149 59.2187 394.429 59.56C395.709 59.9013 397.032 60.584 398.397 61.608C398.568 60.9253 398.738 60.2427 398.909 59.56C399.08 58.792 399.25 58.152 399.421 57.64C399.592 57.0427 399.677 56.4453 399.677 55.848C400.36 51.496 400.616 48.0827 400.445 45.608C400.274 43.1333 399.933 41.256 399.421 39.976C398.824 38.44 398.056 37.4587 397.117 37.032C395.666 37.288 394.386 38.0987 393.277 39.464C392.253 40.8293 391.4 42.3653 390.717 44.072C390.034 45.7787 389.48 47.4427 389.053 49.064C388.712 50.6 388.498 51.6667 388.413 52.264C387.73 60.712 387.218 69.1173 386.877 77.48C386.621 85.8427 386.706 94.0347 387.133 102.056C387.218 102.568 387.048 102.995 386.621 103.336C386.28 103.677 385.853 103.848 385.341 103.848C383.464 103.677 382.013 103.165 380.989 102.312C380.05 101.459 379.325 100.563 378.813 99.624C378.216 98.5147 377.832 97.2773 377.661 95.912C377.149 92.072 376.765 87.6347 376.509 82.6C376.253 77.6507 376.125 72.7013 376.125 67.752C376.04 62.7173 376.04 58.024 376.125 53.672C376.21 49.32 376.338 45.9493 376.509 43.56C376.68 41.768 377.064 40.3173 377.661 39.208C378.258 38.0987 379.154 37.1173 380.349 36.264C381.8 35.1547 383.25 34.344 384.701 33.832C386.237 33.32 387.517 32.9787 388.541 32.808C388.968 32.7227 389.352 32.8507 389.693 33.192C390.12 33.5333 390.29 33.9173 390.205 34.344C390.034 35.1973 389.906 36.0507 389.821 36.904C389.821 37.7573 389.736 38.6533 389.565 39.592C390.76 37.7147 392.253 36.0507 394.045 34.6C395.837 33.064 398.056 32.4667 400.701 32.808C403.261 33.064 405.309 34.4293 406.845 36.904C408.381 39.2933 409.405 42.1947 409.917 45.608C410.429 49.0213 410.386 52.6053 409.789 56.36C409.277 60.0293 408.21 63.3147 406.589 66.216C407.186 66.216 407.741 65.8747 408.253 65.192C409.106 64.168 409.917 63.0587 410.685 61.864C411.538 60.584 412.264 59.3893 412.861 58.28C413.544 57.0853 414.098 56.0187 414.525 55.08C415.037 54.056 415.378 53.288 415.549 52.776C415.72 52.3493 416.018 52.2213 416.445 52.392H416.701ZM395.325 67.624C395.752 67.4533 396.136 67.0693 396.477 66.472C396.818 65.8747 397.16 65.1493 397.501 64.296C396.733 63.6987 395.922 63.2293 395.069 62.888C394.216 62.5467 393.618 62.5893 393.277 63.016C393.021 63.3573 392.85 63.8267 392.765 64.424C392.765 65.0213 392.808 65.6187 392.893 66.216C393.064 66.728 393.32 67.1547 393.661 67.496C394.088 67.752 394.642 67.7947 395.325 67.624ZM448.807 52.392C449.234 52.5627 449.49 52.8187 449.575 53.16C449.746 53.5013 449.746 53.8853 449.575 54.312C448.636 56.36 447.74 58.2373 446.887 59.944C446.034 61.5653 445.223 63.016 444.455 64.296C443.004 66.5147 441.34 68.392 439.463 69.928C437.842 71.208 435.879 72.232 433.575 73C431.271 73.8533 428.626 73.8107 425.639 72.872C424.018 72.36 422.354 71.336 420.647 69.8C419.026 68.264 417.66 66.344 416.551 64.04C415.442 61.736 414.716 59.1333 414.375 56.232C414.034 53.2453 414.375 50.0453 415.399 46.632C416.338 43.304 417.532 40.744 418.983 38.952C420.519 37.0747 422.012 35.6667 423.463 34.728C425.084 33.704 426.791 33.1067 428.583 32.936C430.716 32.7653 432.508 33.0213 433.959 33.704C435.41 34.3013 436.604 35.0693 437.543 36.008C438.311 36.8613 438.908 37.7573 439.335 38.696C439.762 39.5493 439.975 40.5307 439.975 41.64C440.06 42.7493 439.804 44.0293 439.207 45.48C438.524 47.016 437.543 48.296 436.263 49.32C435.154 50.2587 433.66 51.0267 431.783 51.624C429.906 52.136 427.516 52.1787 424.615 51.752C424.615 52.008 424.572 52.264 424.487 52.52C424.487 52.776 424.487 53.032 424.487 53.288C424.316 56.104 424.402 58.664 424.743 60.968C425.084 62.9307 425.724 64.808 426.663 66.6C427.602 68.3067 429.095 69.2453 431.143 69.416C432.594 69.5867 433.959 69.3307 435.239 68.648C436.604 67.9653 437.799 67.1547 438.823 66.216C440.018 65.192 441.17 63.9973 442.279 62.632C443.559 60.6693 444.668 58.7493 445.607 56.872C446.631 54.9093 447.314 53.544 447.655 52.776C447.826 52.3493 448.124 52.2213 448.551 52.392H448.807ZM436.519 38.184C435.922 37.5867 435.111 37.416 434.087 37.672C433.063 37.928 431.996 38.568 430.887 39.592C429.778 40.5307 428.711 41.8107 427.687 43.432C426.663 44.968 425.852 46.76 425.255 48.808C426.023 48.9787 426.876 49.064 427.815 49.064C428.754 49.064 429.692 48.936 430.631 48.68C431.655 48.424 432.594 48.0827 433.447 47.656C434.386 47.144 435.196 46.4187 435.879 45.48C436.647 44.3707 437.116 43.3893 437.287 42.536C437.543 41.5973 437.586 40.7867 437.415 40.104C437.244 39.336 436.946 38.696 436.519 38.184ZM460.711 35.624L461.351 33.064C461.522 32.4667 461.65 31.656 461.735 30.632C461.991 29.7787 462.204 28.84 462.375 27.816C462.716 24.744 462.716 22.2267 462.375 20.264C462.119 18.3867 461.778 16.8933 461.351 15.784C460.754 14.4187 460.114 13.48 459.431 12.968C458.151 12.2853 457.084 13.096 456.231 15.4C455.378 17.6187 454.652 20.5627 454.055 24.232C453.628 28.2427 453.287 32.552 453.031 37.16C452.775 42.024 452.69 46.632 452.775 50.984C453.287 50.5573 453.842 49.9173 454.439 49.064C455.122 48.3813 455.762 47.528 456.359 46.504C458.236 43.176 459.687 39.5493 460.711 35.624ZM462.503 67.112C462.844 67.4533 463.356 67.5387 464.039 67.368C464.466 67.1973 464.85 66.8133 465.191 66.216C465.532 65.6187 465.916 64.8933 466.343 64.04C465.49 63.4427 464.636 62.9733 463.783 62.632C462.93 62.2907 462.332 62.3333 461.991 62.76C461.735 63.1013 461.607 63.5707 461.607 64.168C461.522 64.7653 461.564 65.32 461.735 65.832C461.906 66.4293 462.162 66.856 462.503 67.112ZM477.735 52.264C477.906 55.336 477.522 58.536 476.583 61.864C476.156 63.5707 475.73 64.936 475.303 65.96C475.9 65.96 476.455 65.6187 476.967 64.936C477.82 63.912 478.674 62.76 479.527 61.48C480.295 60.2853 481.02 59.0907 481.703 57.896C482.3 56.7867 482.855 55.72 483.367 54.696C483.794 53.7573 484.135 53.032 484.391 52.52C484.562 52.0933 484.818 51.9653 485.159 52.136H485.415C485.842 52.3067 486.14 52.5627 486.311 52.904C486.396 53.2453 486.354 53.6293 486.183 54.056C483.879 59.2613 481.66 63.3573 479.527 66.344C478.844 67.4533 478.119 68.1787 477.351 68.52C476.583 68.9467 475.815 69.2027 475.047 69.288C474.279 69.288 473.682 69.2027 473.255 69.032L472.487 69.928L471.591 70.824C470.652 71.592 469.671 72.1893 468.647 72.616C467.708 73.0427 466.684 73.2987 465.575 73.384C464.38 73.4693 463.143 73.1707 461.863 72.488C461.18 72.1467 460.626 71.72 460.199 71.208C459.772 70.7813 459.388 70.184 459.047 69.416C458.706 68.7333 458.492 67.9227 458.407 66.984C458.322 66.1307 458.364 65.192 458.535 64.168C458.62 63.144 459.047 62.0773 459.815 60.968C460.754 59.5173 461.863 58.9627 463.143 59.304C464.423 59.6453 465.788 60.328 467.239 61.352L467.751 59.176C467.836 58.4933 467.964 57.896 468.135 57.384C468.562 55.1653 468.775 53.3733 468.775 52.008C468.775 51.496 468.732 50.984 468.647 50.472C468.476 48.5093 468.178 47.016 467.751 45.992C467.154 44.712 466.428 43.944 465.575 43.688C464.21 43.7733 463.015 44.4133 461.991 45.608C460.967 46.7173 460.114 47.9547 459.431 49.32C458.834 50.6853 458.364 52.0507 458.023 53.416C457.682 54.696 457.468 55.5493 457.383 55.976C456.188 59.816 455.804 65.064 456.231 71.72C456.231 72.0613 456.06 72.4027 455.719 72.744C455.378 73 454.951 73.128 454.439 73.128C452.732 73.0427 451.41 72.6587 450.471 71.976C449.532 71.208 448.85 70.4827 448.423 69.8C447.826 68.8613 447.442 67.8373 447.271 66.728C446.759 63.4853 446.375 61.992 446.119 62.248C445.863 62.504 445.778 61.0107 445.863 57.768C443.9 58.1093 442.066 58.1093 440.359 57.768C439.847 57.6827 439.591 57.1707 439.591 56.232C439.762 55.0373 440.103 54.5253 440.615 54.696C441.298 54.7813 441.98 54.8667 442.663 54.952C443.346 54.8667 443.986 54.7813 444.583 54.696C445.095 54.6107 445.564 54.568 445.991 54.568C445.991 52.776 446.034 51.2827 446.119 50.088V43.688C446.204 39.848 446.418 36.1787 446.759 32.68C447.1 28.9253 447.698 25.3413 448.551 21.928C449.319 18.6853 450.386 15.784 451.751 13.224C452.519 11.5173 453.372 10.2373 454.311 9.384C455.164 8.70133 455.975 8.18933 456.743 7.848C457.511 7.67733 458.194 7.63466 458.791 7.71999C459.388 7.80533 459.815 7.976 460.071 8.23199C461.948 8.91466 463.442 10.664 464.551 13.48C465.49 16.2107 465.959 19.0693 465.959 22.056C465.874 25.128 465.532 28.2427 464.935 31.4C464.423 34.3867 463.612 37.2027 462.503 39.848C462.076 40.872 461.65 41.896 461.223 42.92C461.735 42.3227 462.247 41.8533 462.759 41.512C464.38 40.3173 466.428 39.848 468.903 40.104C471.292 40.36 473.212 41.4693 474.663 43.432C476.114 45.3947 477.095 47.7413 477.607 50.472C477.692 51.0693 477.735 51.6667 477.735 52.264ZM514.107 41.384C514.619 42.152 514.747 43.048 514.491 44.072C513.808 45.9493 513.04 47.5707 512.187 48.936C512.272 49.96 512.315 51.0693 512.315 52.264C512.315 53.3733 512.23 54.5253 512.059 55.72C511.632 59.4747 510.779 62.4613 509.499 64.68C508.304 66.8133 507.067 68.4773 505.787 69.672C504.251 71.1227 502.587 72.104 500.795 72.616C497.638 73.2987 494.95 73.128 492.731 72.104C490.512 71.08 488.72 69.5013 487.355 67.368C486.075 65.2347 485.222 62.8027 484.795 60.072C484.368 57.256 484.411 54.44 484.923 51.624C485.008 51.0267 485.179 50.3867 485.435 49.704C485.606 49.1067 485.819 48.4667 486.075 47.784C486.416 47.1013 486.843 46.4187 487.355 45.736C487.27 44.2 487.483 42.7067 487.995 41.256C488.592 39.72 489.36 38.3547 490.299 37.16C491.323 35.88 492.475 34.856 493.755 34.088C495.12 33.32 496.571 32.8933 498.107 32.808C501.264 32.552 504.08 33.5333 506.555 35.752C509.03 37.8853 510.736 41 511.675 45.096C512.102 44.328 512.443 43.6453 512.699 43.048C513.04 42.4507 513.296 41.9387 513.467 41.512C513.467 41.3413 513.51 41.256 513.595 41.256C513.766 41.1707 513.936 41.2133 514.107 41.384ZM499.387 37.288C497.51 37.4587 496.102 38.7387 495.163 41.128C495.59 41.128 496.016 41.128 496.443 41.128C496.87 41.128 497.339 41.1707 497.851 41.256C498.107 41.3413 498.278 41.512 498.363 41.768C498.534 42.024 498.534 42.3227 498.363 42.664C497.936 43.3467 497.467 44.2853 496.955 45.48C496.443 46.5893 495.974 47.912 495.547 49.448C495.974 50.0453 496.443 50.5147 496.955 50.856C497.467 51.112 497.936 51.3253 498.363 51.496C498.875 51.752 499.43 51.88 500.027 51.88C501.478 52.0507 502.758 51.9653 503.867 51.624C505.062 51.2827 506.128 50.7707 507.067 50.088C506.982 45.48 506.128 42.152 504.507 40.104C502.886 38.056 501.179 37.1173 499.387 37.288ZM506.171 59.048C506.342 58.536 506.427 57.9813 506.427 57.384C506.512 56.7867 506.598 56.232 506.683 55.72C506.768 55.1227 506.854 54.4827 506.939 53.8C504.976 54.9093 502.928 55.5493 500.795 55.72C498.662 55.8907 496.656 55.6347 494.779 54.952C494.694 55.976 494.608 57.3413 494.523 59.048C494.523 60.6693 494.651 62.248 494.907 63.784C495.248 65.32 495.803 66.6 496.571 67.624C497.424 68.5627 498.619 68.8613 500.155 68.52C500.411 68.4347 500.752 68.3067 501.179 68.136C501.691 67.9653 502.246 67.5813 502.843 66.984C503.44 66.3867 504.038 65.4907 504.635 64.296C505.232 63.016 505.744 61.2667 506.171 59.048Z" fill="#BE2A2A"/>
</svg>
